# xmcd
#
# Track frame offsets:
# 225
# 17117
# 36319
# 47894
# 65956
# 84963
# 106678
# 121590
# 138820
# 153035
#
# Disc length: 2264 seconds
#
#
# Revision: 0
# Processed by: cddbd v1.5.2PL0 Copyright (c) Steve Scherf et al.
# Submitted via: FreeRIP 2.53 
#
DISCID=7608d50a
DTITLE=Element of Crime - Lieblingsfarben und Tiere
DYEAR=2014
DGENRE=Rock
TTITLE0=Am Morgen danach
TTITLE1=Lieblingsfarben und Tiere
TTITLE2=Schade dass ich nicht da war
TTITLE3=Rette mich (vor mir selber)
TTITLE4=Liebe ist kälter als der Tod
TTITLE5=Schwert, Schild und Fahrrad
TTITLE6=Immer so weiter
TTITLE7=Dunkle Wolken
TTITLE8=Dieselben Sterne
TTITLE9=Wenn der Wolf schläft müssen alle Schafe ruhen
EXTD=
EXTT0=
EXTT1=
EXTT2=
EXTT3=
EXTT4=
EXTT5=
EXTT6=
EXTT7=
EXTT8=
EXTT9=
PLAYORDER=
